<svg width="40" height="40" viewBox="0 0 40 40" fill="none" xmlns="http://www.w3.org/2000/svg">
<path fill-rule="evenodd" clip-rule="evenodd" d="M20 0C8.9543 0 0 8.9543 0 20C0 31.0457 8.9543 40 20 40C31.0457 40 40 31.0457 40 20C40 8.9543 31.0457 0 20 0ZM19.443 16.9481L19.401 16.256C19.2751 14.4623 20.3803 12.824 22.129 12.1885C22.7725 11.9625 23.8637 11.9343 24.5772 12.132C24.8569 12.2167 25.3885 12.4992 25.7663 12.7534L26.4518 13.2195L27.2072 12.9794C27.6269 12.8523 28.1865 12.6404 28.4383 12.4992C28.6761 12.3721 28.8859 12.3015 28.8859 12.3438C28.8859 12.5839 28.3683 13.4031 27.9347 13.855C27.3471 14.4906 27.515 14.5471 28.7041 14.1234C29.4175 13.8833 29.4315 13.8833 29.2916 14.1516C29.2077 14.2929 28.774 14.7872 28.3124 15.2391C27.529 16.0159 27.487 16.1006 27.487 16.7503C27.487 17.7531 27.0113 19.8433 26.5357 20.9873C25.6543 23.1341 23.7658 25.3515 21.8772 26.4672C19.2191 28.0349 15.6798 28.4304 12.7 27.5123C11.7067 27.2016 10 26.4107 10 26.2695C10 26.2271 10.5176 26.1706 11.1471 26.1565C12.4622 26.1282 13.7772 25.761 14.8964 25.1114L15.6518 24.6594L14.7844 24.3628C13.5534 23.9391 12.4482 22.9646 12.1684 22.0466C12.0844 21.75 12.1124 21.7359 12.8958 21.7359L13.7072 21.7218L13.0218 21.3969C12.2104 20.9873 11.4689 20.2953 11.1052 19.5891C10.8394 19.0807 10.5036 17.7955 10.6016 17.6966C10.6295 17.6542 10.9233 17.739 11.2591 17.8519C12.2243 18.205 12.3503 18.1203 11.7907 17.5271C10.7414 16.4537 10.4197 14.8578 10.9233 13.3466L11.1611 12.6687L12.0844 13.5867C13.973 15.4369 16.1974 16.5385 18.7435 16.8633L19.443 16.9481Z" fill="#78D838"/>
</svg>
